<?xml version="1.0" encoding="UTF-8"?>
<svg id="Layer_1" data-name="Layer 1" xmlns="http://www.w3.org/2000/svg" viewBox="0 0 188.82 47.25">
  <defs>
    <style>
      .cls-1 {
        fill: #00e013;
      }
    </style>
  </defs>
  <polygon class="cls-1" points="9.09 7.48 7.19 18.42 21.98 18.42 18.16 40.07 29.8 40.07 33.62 18.42 48.46 18.42 50.36 7.48 9.09 7.48"/>
  <g>
    <path class="cls-1" d="M172.26,7.19h-13.72v-.03l-35.76.03h-14.89c-3.55,0-6.38.93-8.41,2.76-2,1.8-3.34,4.53-3.98,8.12l-1.83,10.3c-.19,1.12-.28,2.16-.28,3.08,0,2.73.82,4.83,2.43,6.26,1.56,1.38,3.88,2.07,6.9,2.07h20.87c3.54,0,6.38-.93,8.43-2.75,2.02-1.8,3.36-4.53,4.01-8.12l1.11-6.28h-11.7l-.87,4.91c-.06.35-.18.82-.45,1.07-.16.15-.5.24-.96.24h-17.22c-.25,0-.44-.01-.6-.02.01-.15.04-.38.1-.74l1.52-8.57c.22-1.27.75-1.37,1.41-1.37h17.22c.15,0,.29,0,.4.01h11.93s0-.02,0-.02h1.83v.02s11.69,0,11.69,0h0s17.69-.01,17.69-.01c.14,0,.26,0,.36.01h.18,0s.02.02.03.02c0,.15-.03.39-.1.74l-3.68,20.88h11.68l3.75-21.16c.19-1.07.28-2.08.28-3.01,0-5.43-3.33-8.42-9.38-8.42Z"/>
    <polygon class="cls-1" points="138.95 22.62 135.94 39.78 147.62 39.78 150.65 22.62 138.95 22.62"/>
  </g>
  <path class="cls-1" d="M91.69,9.04c-1.21-1.05-3.06-1.57-5.66-1.57h-33.37l-5.73,32.59h11.68l1.69-9.5h19.22s.06,0,.09,0l-.98,5.69c-.04.18-.06.34-.08.49,0,.01,0,.02,0,.03l-.57,3.29h11.64l.49-2.82v-.08s.01-.02.02-.03l.81-4.55.33-1.89h-.02c.06-.53.09-1,.09-1.44,0-1.02-.15-1.86-.47-2.55-.22-.49-.5-.91-.82-1.27.02-.02.04-.04.07-.06.6-.52,1.13-1.23,1.6-2.11.46-.87.8-1.97,1.03-3.38l.65-3.9c.06-.38.11-.76.15-1.12.03-.37.05-.74.05-1.1,0-2.04-.64-3.63-1.9-4.73ZM80.92,21.06h-18.95,0s0,0,0,0l.03-.14.78-4.51h18.94l-.79,4.65Z"/>
</svg>