<?xml version="1.0" encoding="UTF-8"?>
<svg id="Layer_1" data-name="Layer 1" xmlns="http://www.w3.org/2000/svg" viewBox="0 0 102.62 47.25">
  <defs>
    <style>
      .cls-1 {
        fill: #fff;
      }
    </style>
  </defs>
  <path class="cls-1" d="M86.06,7.19h-13.72v-.03l-35.76.03h-14.89c-3.55,0-6.38.93-8.41,2.76-2,1.8-3.34,4.53-3.98,8.12l-1.83,10.3c-.19,1.12-.28,2.16-.28,3.08,0,2.73.82,4.83,2.43,6.26,1.56,1.38,3.88,2.07,6.9,2.07h20.87c3.54,0,6.38-.93,8.43-2.75,2.02-1.8,3.36-4.53,4.01-8.12l1.11-6.28h-11.7l-.87,4.91c-.06.35-.18.82-.45,1.07-.16.15-.5.24-.96.24h-17.22c-.25,0-.44-.01-.6-.02.01-.15.04-.38.1-.74l1.52-8.57c.22-1.27.75-1.37,1.41-1.37h17.22c.15,0,.29,0,.4.01h11.93s0-.02,0-.02h1.83v.02s11.69,0,11.69,0h0s17.69-.01,17.69-.01c.14,0,.26,0,.36.01h.18,0s.02.02.03.02c0,.15-.03.39-.1.74l-3.68,20.88h11.68l3.75-21.16c.19-1.07.28-2.08.28-3.01,0-5.43-3.33-8.42-9.38-8.42Z"/>
  <polygon class="cls-1" points="52.75 22.62 49.74 39.78 61.42 39.78 64.45 22.62 52.75 22.62"/>
</svg>